<svg xmlns="http://www.w3.org/2000/svg" width="32" height="32" viewBox="0 0 32 32">
  <rect x="0.5" y="0.5" width="31" height="31" rx="6" ry="6" fill="#fff" stroke="#0C4DA6" stroke-width="1"/>
  <circle cx="16" cy="16" r="12" fill="#0C4DA6"/>
  <circle cx="16" cy="16" r="10.5" fill="#fff"/>
  <path d="M 9.5 20.5 L 17 13 C 17.7 12.3 18.8 12.3 19.4 13 L 21 14.6 C 21.7 15.3 21.7 16.3 21 17 L 14 24 C 13.3 24.7 12.3 24.7 11.6 24 L 10 22.4 C 9.4 21.8 9.4 20.7 9.5 20.5 Z" fill="#0C4DA6"/>
  <path d="M 20.8 12.3 L 22.3 13.8" stroke="#fff" stroke-width="1.5" stroke-linecap="round"/>
  <path d="M 10.5 20.4 L 10.5 22.4" stroke="#0C4DA6" stroke-width="1.5" stroke-linecap="round"/>
  <path d="M 10.5 20.4 L 21 9.9" stroke="#0C4DA6" stroke-width="2" stroke-linecap="round"/>
  <path d="M 10.5 20.4 L 23.3 14.3" stroke="#0C4DA6" stroke-width="2" stroke-linecap="round"/>
  <path d="M 9.3 19.2 L 6.8 19.8 C 5.8 20 5.8 21 6.8 21.4 L 11.4 20.9" fill="#0C4DA6"/>
  <circle cx="7.4" cy="20.4" r="1.3" fill="#fff"/>
  <path d="M 7.4 20.4 L 10 20.4" stroke="#fff" stroke-width="1" stroke-linecap="round"/>
</svg>